Coordinates
version=1
nRows=14
nColumns=36
inDegrees=yes

Units are S.I. units (second, meters, Newtons, ...)
If the header above contains a line with 'inDegrees', this indicates whether rotational values are in degrees (yes) or radians (no).

endheader
time	pelvis_tilt	pelvis_list	pelvis_rotation	pelvis_tx	pelvis_ty	pelvis_tz	hip_flexion_r	hip_adduction_r	hip_rotation_r	knee_angle_r	knee_angle_r_beta	ankle_angle_r	subtalar_angle_r	mtp_angle_r	hip_flexion_l	hip_adduction_l	hip_rotation_l	knee_angle_l	knee_angle_l_beta	ankle_angle_l	subtalar_angle_l	mtp_angle_l	lumbar_extension	lumbar_bending	lumbar_rotation	arm_flex_r	arm_add_r	arm_rot_r	elbow_flex_r	pro_sup_r	arm_flex_l	arm_add_l	arm_rot_l	elbow_flex_l	pro_sup_l
      0.00000000	      1.46625711	     -1.05102282	     -2.61573930	      0.29678640	      0.93699732	     -0.04530841	     -4.31113673	     -3.05651714	     -5.26972177	      1.42623101	      0.02489243	     -3.28579798	    -19.32396706	     -4.40085673	     -4.05661574	     -5.25406408	      0.38667133	      3.42870340	      0.05984216	      2.03659631	     -9.08328010	     -4.40085673	     -7.67089802	      0.07124124	      1.29761955	      0.59918412	     -4.17466592	     11.19789981	     25.03353642	     75.70605054	      0.62612445	     -6.70335945	     14.21301192	     26.84786831	     70.18089140
      0.01666670	      0.33042449	     -0.80751105	     -1.72552693	      0.29712425	      0.93478262	     -0.05450225	     -3.35966193	     -3.21694005	     -6.11134020	      1.37313352	      0.02396570	     -0.86524738	    -16.01046328	     -4.63568481	     -2.92163023	     -4.36149643	      1.49360322	      2.31952941	      0.04048343	      2.67944091	     -7.67172571	     -4.63568481	     -5.72796281	      0.11634893	      1.11478286	     -0.58090039	     -3.00201879	      4.44844431	     25.31555603	     75.15760051	      0.64090687	     -4.96585025	      7.96031919	     26.10200709	     69.91707531
      0.03333330	     -0.14765526	     -0.29050685	     -1.68798373	      0.30105078	      0.93182846	     -0.04935424	     -3.12302614	     -3.64632122	     -6.36578890	      0.87805438	      0.01532494	     -0.60094611	    -15.95256822	     -5.25498536	     -2.74283457	     -3.86093886	      1.03708298	      1.56095119	      0.02724374	      2.71250350	     -6.76006441	     -5.25498536	     -5.04882544	     -0.72012029	      1.53514609	     -1.62310016	     -1.90978332	     -0.83050916	     26.37244955	     77.18364953	      0.46892575	     -5.08486355	      5.63310333	     26.38299805	     72.92155980
      0.05000000	     -0.14182399	     -0.03529414	     -1.48442132	      0.29607043	      0.93260986	     -0.05355872	     -3.10692911	     -4.14000713	     -6.06741176	      0.79039579	      0.01379501	     -0.22125774	    -15.98560776	     -5.26409266	     -2.97874548	     -3.47457151	      1.40610887	      0.95953749	      0.01674709	      2.62862425	     -6.51841153	     -5.26409266	     -5.08650090	     -1.02386180	      1.57370278	     -1.65050863	     -1.95184573	     -0.86459106	     26.44032113	     77.19170006	      0.56265457	     -5.22520025	      5.67435705	     26.52190216	     72.95849036
      0.06666670	      0.44311169	     -0.09611053	     -1.41132899	      0.29974238	      0.93367718	     -0.04925078	     -3.85716223	     -3.99391254	     -5.69434624	      0.66235271	      0.01156024	      0.16094504	    -16.21465987	     -5.31668034	     -3.84471269	     -3.56930868	      1.32708664	      0.59150358	      0.01032369	      2.63417270	     -6.16481101	     -5.31668034	     -5.82714785	     -1.05951797	      1.79446446	     -1.81041297	     -1.90972721	     -0.81030019	     27.10109237	     77.18876070	      0.63008517	     -5.49815664	      6.29506549	     27.10499609	     73.19463889
      0.08333330	      0.73474934	     -0.16535779	     -1.41696448	      0.29919698	      0.93692771	     -0.04902766	     -4.21175642	     -3.83590084	     -5.42489918	      0.69516378	      0.01213290	      0.41188480	    -16.61724338	     -6.36298504	     -4.32330191	     -3.68327219	      1.47531984	      0.48114979	      0.00839765	      2.64751285	     -5.97167222	     -6.36298504	     -6.19357119	     -1.10985118	      2.12059496	     -1.92496312	     -2.10548174	      0.81264737	     27.64113301	     72.48329976	      1.01319615	     -5.77289317	      7.68661770	     27.43535099	     69.91351130
      0.10000000	      1.06286561	     -0.21992530	     -1.42581560	      0.29883845	      0.93706043	     -0.04907469	     -4.63212016	     -3.73177177	     -5.33660082	      0.65267367	      0.01139130	      0.86110449	    -16.82134360	     -6.66040648	     -4.77002685	     -3.79387254	      1.46896131	      0.43549010	      0.00760074	      2.80206143	     -5.47189304	     -6.66040648	     -6.58497689	     -1.15006249	      2.21354633	     -1.66136401	     -2.04130382	      1.28497166	     27.39173956	     70.99360041	      1.41614524	     -5.76334957	      7.58502992	     27.34639590	     68.74299018
      0.11666670	      1.33631425	     -0.30794140	     -1.40700321	      0.29834755	      0.93448200	     -0.04908471	     -4.96042376	     -3.59351018	     -5.14023044	      0.66987405	      0.01169151	      0.73735639	    -17.68415884	     -6.80056775	     -5.14497056	     -3.92787701	      1.84473796	      0.41126979	      0.00717801	      2.67963739	     -6.01823884	     -6.80056775	     -6.91928291	     -1.14399585	      2.26808614	     -1.55989093	     -2.36173755	      3.02816703	     27.65528893	     71.57495491	      1.87203626	     -6.00785635	      8.47185582	     27.27365500	     69.33204770
      0.13333330	      1.58115559	     -0.38856462	     -1.37593464	      0.29834981	      0.93490431	     -0.04913309	     -5.24326951	     -3.49043509	     -5.13511796	      0.69397340	      0.01211212	      0.84717326	    -18.04725699	     -6.91791134	     -5.45219496	     -4.05753279	      1.97472686	      0.39810487	      0.00694824	      2.67869874	     -5.97822056	     -6.91791134	     -7.21599016	     -1.11874385	      2.25339532	     -1.39886377	     -2.47430377	      3.74513179	     27.64318093	     71.60861704	      2.21219621	     -6.05678219	      8.48807329	     27.12207974	     69.34264795
      0.15000000	      1.74646579	     -0.44591059	     -1.33308680	      0.29810534	      0.93529412	     -0.04901317	     -5.42832970	     -3.40717285	     -4.98531243	      0.71260226	      0.01243726	      0.63427541	    -18.71973851	     -6.94382420	     -5.65129144	     -4.17255424	      2.02086572	      0.38841408	      0.00677910	      2.66069189	     -5.80328525	     -6.94382420	     -7.39418323	     -1.09994860	      2.16586264	     -1.28994003	     -2.49506522	      3.93836850	     27.65192186	     71.42906762	      2.40326849	     -6.10223948	      8.37041435	     27.04689260	     69.13758309
      0.16666670	      1.91516381	     -0.49804822	     -1.25493242	      0.29815430	      0.93564867	     -0.04918629	     -5.61071863	     -3.33177864	     -5.21842913	      0.72425833	      0.01264069	      0.75652748	    -18.43082310	     -7.05519818	     -5.83882319	     -4.27218322	      2.23513405	      0.37864525	      0.00660861	      2.42675661	     -5.99702537	     -7.05519818	     -7.57058169	     -1.08286930	      2.09027561	     -1.19737324	     -2.67264765	      4.75075069	     27.79261051	     71.18761846	      2.63235170	     -6.15086671	      8.50745510	     26.73829316	     68.76716878
      0.18333330	      2.05949030	     -0.53049547	     -1.17105823	      0.29792275	      0.93590958	     -0.04917733	     -5.77150544	     -3.28000695	     -5.24683026	      0.71391989	      0.01246025	      0.62846936	    -18.56175371	     -7.09654528	     -5.98444457	     -4.35321797	      2.29781726	      0.37124496	      0.00647945	      2.34059973	     -5.84532478	     -7.09654528	     -7.75429189	     -1.04048537	      1.95899731	     -1.11898627	     -2.74699924	      4.88326142	     27.90214563	     70.87428740	      2.69698041	     -6.19601778	      8.44329834	     26.72504015	     68.44372067
      0.20000000	      2.12003879	     -0.57009872	     -1.13102116	      0.29801624	      0.93899613	     -0.04921513	     -5.84402814	     -3.23316896	     -5.32904650	      0.69847537	      0.01219069	      0.48491627	    -18.58100729	     -7.18852033	     -6.05493832	     -4.44454812	      2.54234001	      0.36861703	      0.00643358	      2.12700410	     -5.97197050	     -7.18852033	     -7.81131851	     -0.99473078	      1.86964663	     -1.04018453	     -2.89916643	      5.39763052	     27.94864507	     70.91832714	      2.98395069	     -6.16846891	      8.76154352	     26.28844490	     68.31072133
      0.21666670	      2.29662673	     -0.61093262	     -1.12644749	      0.29774277	      0.93898695	     -0.04903232	     -6.02354672	     -3.18893604	     -5.34040930	      0.66782627	      0.01165577	      0.35783622	    -18.55070797	     -7.21339055	     -6.22351268	     -4.50891228	      2.46019701	      0.36383810	      0.00635017	      2.05592961	     -5.77761635	     -7.21339055	     -8.11451313	     -0.90409968	      1.75219702	     -0.94265452	     -2.96600512	      5.43090139	     28.10553669	     70.65860586	      3.08494123	     -6.12290933	      8.76357894	     26.35202264	     68.05337130
